<mxfile host="Electron" modified="2023-11-03T09:49:34.565Z" agent="Mozilla/5.0 (Windows NT 10.0; Win64; x64) AppleWebKit/537.36 (KHTML, like Gecko) draw.io/22.0.3 Chrome/114.0.5735.289 Electron/25.8.4 Safari/537.36" etag="FtJrlOJ9q_zDJdPM8iod" version="22.0.3" type="device" pages="3">
  <diagram id="C5RBs43oDa-KdzZeNtuy" name="Elements">
    <mxGraphModel dx="1195" dy="797" grid="1" gridSize="10" guides="1" tooltips="1" connect="1" arrows="1" fold="1" page="1" pageScale="1" pageWidth="827" pageHeight="1169" math="0" shadow="0">
      <root>
        <mxCell id="WIyWlLk6GJQsqaUBKTNV-0" />
        <mxCell id="WIyWlLk6GJQsqaUBKTNV-1" parent="WIyWlLk6GJQsqaUBKTNV-0" />
        <mxCell id="XBZPvO9veB1cNfj0JrcV-6" value="ParameterListener" style="rounded=0;whiteSpace=wrap;html=1;" vertex="1" parent="WIyWlLk6GJQsqaUBKTNV-1">
          <mxGeometry x="40" y="360" width="120" height="40" as="geometry" />
        </mxCell>
        <mxCell id="XBZPvO9veB1cNfj0JrcV-8" style="edgeStyle=orthogonalEdgeStyle;rounded=0;orthogonalLoop=1;jettySize=auto;html=1;exitX=0.5;exitY=0;exitDx=0;exitDy=0;entryX=0.5;entryY=1;entryDx=0;entryDy=0;endArrow=block;endFill=0;" edge="1" parent="WIyWlLk6GJQsqaUBKTNV-1" source="XBZPvO9veB1cNfj0JrcV-7" target="XBZPvO9veB1cNfj0JrcV-6">
          <mxGeometry relative="1" as="geometry" />
        </mxCell>
        <mxCell id="XBZPvO9veB1cNfj0JrcV-7" value="Element" style="rounded=0;whiteSpace=wrap;html=1;" vertex="1" parent="WIyWlLk6GJQsqaUBKTNV-1">
          <mxGeometry x="40" y="470" width="120" height="40" as="geometry" />
        </mxCell>
        <mxCell id="XBZPvO9veB1cNfj0JrcV-10" style="edgeStyle=orthogonalEdgeStyle;rounded=0;orthogonalLoop=1;jettySize=auto;html=1;exitX=0;exitY=0.5;exitDx=0;exitDy=0;entryX=1;entryY=0.5;entryDx=0;entryDy=0;endArrow=block;endFill=0;" edge="1" parent="WIyWlLk6GJQsqaUBKTNV-1" source="XBZPvO9veB1cNfj0JrcV-9" target="XBZPvO9veB1cNfj0JrcV-7">
          <mxGeometry relative="1" as="geometry" />
        </mxCell>
        <mxCell id="XBZPvO9veB1cNfj0JrcV-9" value="ElementRange" style="rounded=0;whiteSpace=wrap;html=1;" vertex="1" parent="WIyWlLk6GJQsqaUBKTNV-1">
          <mxGeometry x="240" y="240" width="120" height="40" as="geometry" />
        </mxCell>
        <mxCell id="XBZPvO9veB1cNfj0JrcV-12" style="edgeStyle=orthogonalEdgeStyle;rounded=0;orthogonalLoop=1;jettySize=auto;html=1;exitX=0;exitY=0.5;exitDx=0;exitDy=0;entryX=1;entryY=0.5;entryDx=0;entryDy=0;endArrow=block;endFill=0;" edge="1" parent="WIyWlLk6GJQsqaUBKTNV-1" source="XBZPvO9veB1cNfj0JrcV-11" target="XBZPvO9veB1cNfj0JrcV-7">
          <mxGeometry relative="1" as="geometry" />
        </mxCell>
        <mxCell id="XBZPvO9veB1cNfj0JrcV-11" value="ElementInterface" style="rounded=0;whiteSpace=wrap;html=1;" vertex="1" parent="WIyWlLk6GJQsqaUBKTNV-1">
          <mxGeometry x="240" y="565" width="120" height="40" as="geometry" />
        </mxCell>
        <mxCell id="XBZPvO9veB1cNfj0JrcV-14" style="edgeStyle=orthogonalEdgeStyle;shape=connector;rounded=0;orthogonalLoop=1;jettySize=auto;html=1;exitX=0;exitY=0.5;exitDx=0;exitDy=0;entryX=1;entryY=0.5;entryDx=0;entryDy=0;labelBackgroundColor=default;strokeColor=default;align=center;verticalAlign=middle;fontFamily=Helvetica;fontSize=11;fontColor=default;endArrow=block;endFill=0;" edge="1" parent="WIyWlLk6GJQsqaUBKTNV-1" source="XBZPvO9veB1cNfj0JrcV-13" target="XBZPvO9veB1cNfj0JrcV-7">
          <mxGeometry relative="1" as="geometry" />
        </mxCell>
        <mxCell id="XBZPvO9veB1cNfj0JrcV-13" value="ElementDynamic" style="rounded=0;whiteSpace=wrap;html=1;fontFamily=Helvetica;fontSize=11;fontColor=default;" vertex="1" parent="WIyWlLk6GJQsqaUBKTNV-1">
          <mxGeometry x="240" y="670" width="120" height="40" as="geometry" />
        </mxCell>
        <mxCell id="XBZPvO9veB1cNfj0JrcV-16" style="edgeStyle=orthogonalEdgeStyle;shape=connector;rounded=0;orthogonalLoop=1;jettySize=auto;html=1;exitX=0;exitY=0.5;exitDx=0;exitDy=0;entryX=1;entryY=0.5;entryDx=0;entryDy=0;labelBackgroundColor=default;strokeColor=default;align=center;verticalAlign=middle;fontFamily=Helvetica;fontSize=11;fontColor=default;endArrow=block;endFill=0;" edge="1" parent="WIyWlLk6GJQsqaUBKTNV-1" source="XBZPvO9veB1cNfj0JrcV-15" target="XBZPvO9veB1cNfj0JrcV-9">
          <mxGeometry relative="1" as="geometry" />
        </mxCell>
        <mxCell id="XBZPvO9veB1cNfj0JrcV-15" value="ElemEmptyRange" style="rounded=0;whiteSpace=wrap;html=1;fontFamily=Helvetica;fontSize=11;fontColor=default;" vertex="1" parent="WIyWlLk6GJQsqaUBKTNV-1">
          <mxGeometry x="440" y="130" width="130" height="20" as="geometry" />
        </mxCell>
        <mxCell id="XBZPvO9veB1cNfj0JrcV-18" style="edgeStyle=orthogonalEdgeStyle;shape=connector;rounded=0;orthogonalLoop=1;jettySize=auto;html=1;exitX=0;exitY=0.5;exitDx=0;exitDy=0;entryX=1;entryY=0.5;entryDx=0;entryDy=0;labelBackgroundColor=default;strokeColor=default;align=center;verticalAlign=middle;fontFamily=Helvetica;fontSize=11;fontColor=default;endArrow=block;endFill=0;" edge="1" parent="WIyWlLk6GJQsqaUBKTNV-1" source="XBZPvO9veB1cNfj0JrcV-17" target="XBZPvO9veB1cNfj0JrcV-9">
          <mxGeometry relative="1" as="geometry" />
        </mxCell>
        <mxCell id="XBZPvO9veB1cNfj0JrcV-17" value="ElemMediumRange" style="rounded=0;whiteSpace=wrap;html=1;fontFamily=Helvetica;fontSize=11;fontColor=default;" vertex="1" parent="WIyWlLk6GJQsqaUBKTNV-1">
          <mxGeometry x="440" y="160" width="130" height="20" as="geometry" />
        </mxCell>
        <mxCell id="XBZPvO9veB1cNfj0JrcV-20" style="edgeStyle=orthogonalEdgeStyle;shape=connector;rounded=0;orthogonalLoop=1;jettySize=auto;html=1;exitX=0;exitY=0.5;exitDx=0;exitDy=0;labelBackgroundColor=default;strokeColor=default;align=center;verticalAlign=middle;fontFamily=Helvetica;fontSize=11;fontColor=default;endArrow=block;endFill=0;entryX=1;entryY=0.5;entryDx=0;entryDy=0;" edge="1" parent="WIyWlLk6GJQsqaUBKTNV-1" source="XBZPvO9veB1cNfj0JrcV-19" target="XBZPvO9veB1cNfj0JrcV-9">
          <mxGeometry relative="1" as="geometry">
            <mxPoint x="380" y="630" as="targetPoint" />
          </mxGeometry>
        </mxCell>
        <mxCell id="XBZPvO9veB1cNfj0JrcV-19" value="ElemPlate" style="rounded=0;whiteSpace=wrap;html=1;fontFamily=Helvetica;fontSize=11;fontColor=default;" vertex="1" parent="WIyWlLk6GJQsqaUBKTNV-1">
          <mxGeometry x="440" y="190" width="130" height="20" as="geometry" />
        </mxCell>
        <mxCell id="XBZPvO9veB1cNfj0JrcV-22" style="edgeStyle=orthogonalEdgeStyle;shape=connector;rounded=0;orthogonalLoop=1;jettySize=auto;html=1;exitX=0;exitY=0.5;exitDx=0;exitDy=0;entryX=0.75;entryY=1;entryDx=0;entryDy=0;labelBackgroundColor=default;strokeColor=default;align=center;verticalAlign=middle;fontFamily=Helvetica;fontSize=11;fontColor=default;endArrow=block;endFill=0;" edge="1" parent="WIyWlLk6GJQsqaUBKTNV-1" source="XBZPvO9veB1cNfj0JrcV-21" target="XBZPvO9veB1cNfj0JrcV-7">
          <mxGeometry relative="1" as="geometry" />
        </mxCell>
        <mxCell id="XBZPvO9veB1cNfj0JrcV-21" value="ElemFlatMirror" style="rounded=0;whiteSpace=wrap;html=1;fontFamily=Helvetica;fontSize=11;fontColor=default;" vertex="1" parent="WIyWlLk6GJQsqaUBKTNV-1">
          <mxGeometry x="440" y="750" width="130" height="20" as="geometry" />
        </mxCell>
        <mxCell id="XBZPvO9veB1cNfj0JrcV-24" style="edgeStyle=orthogonalEdgeStyle;shape=connector;rounded=0;orthogonalLoop=1;jettySize=auto;html=1;exitX=0;exitY=0.5;exitDx=0;exitDy=0;entryX=0.75;entryY=1;entryDx=0;entryDy=0;labelBackgroundColor=default;strokeColor=default;align=center;verticalAlign=middle;fontFamily=Helvetica;fontSize=11;fontColor=default;endArrow=block;endFill=0;" edge="1" parent="WIyWlLk6GJQsqaUBKTNV-1" source="XBZPvO9veB1cNfj0JrcV-23" target="XBZPvO9veB1cNfj0JrcV-7">
          <mxGeometry relative="1" as="geometry" />
        </mxCell>
        <mxCell id="XBZPvO9veB1cNfj0JrcV-23" value="ElemCurveMirror" style="rounded=0;whiteSpace=wrap;html=1;fontFamily=Helvetica;fontSize=11;fontColor=default;" vertex="1" parent="WIyWlLk6GJQsqaUBKTNV-1">
          <mxGeometry x="440" y="780" width="130" height="20" as="geometry" />
        </mxCell>
        <mxCell id="XBZPvO9veB1cNfj0JrcV-26" style="edgeStyle=orthogonalEdgeStyle;shape=connector;rounded=0;orthogonalLoop=1;jettySize=auto;html=1;exitX=0;exitY=0.5;exitDx=0;exitDy=0;entryX=0.75;entryY=1;entryDx=0;entryDy=0;labelBackgroundColor=default;strokeColor=default;align=center;verticalAlign=middle;fontFamily=Helvetica;fontSize=11;fontColor=default;endArrow=block;endFill=0;" edge="1" parent="WIyWlLk6GJQsqaUBKTNV-1" source="XBZPvO9veB1cNfj0JrcV-25" target="XBZPvO9veB1cNfj0JrcV-7">
          <mxGeometry relative="1" as="geometry" />
        </mxCell>
        <mxCell id="XBZPvO9veB1cNfj0JrcV-25" value="ElemThinLens" style="rounded=0;whiteSpace=wrap;html=1;fontFamily=Helvetica;fontSize=11;fontColor=default;" vertex="1" parent="WIyWlLk6GJQsqaUBKTNV-1">
          <mxGeometry x="440" y="810" width="130" height="20" as="geometry" />
        </mxCell>
        <mxCell id="XBZPvO9veB1cNfj0JrcV-28" style="edgeStyle=orthogonalEdgeStyle;shape=connector;rounded=0;orthogonalLoop=1;jettySize=auto;html=1;exitX=0;exitY=0.5;exitDx=0;exitDy=0;entryX=1;entryY=0.5;entryDx=0;entryDy=0;labelBackgroundColor=default;strokeColor=default;align=center;verticalAlign=middle;fontFamily=Helvetica;fontSize=11;fontColor=default;endArrow=block;endFill=0;" edge="1" parent="WIyWlLk6GJQsqaUBKTNV-1" source="XBZPvO9veB1cNfj0JrcV-27" target="XBZPvO9veB1cNfj0JrcV-25">
          <mxGeometry relative="1" as="geometry" />
        </mxCell>
        <mxCell id="XBZPvO9veB1cNfj0JrcV-27" value="ElemCylinderLensT" style="rounded=0;whiteSpace=wrap;html=1;fontFamily=Helvetica;fontSize=11;fontColor=default;" vertex="1" parent="WIyWlLk6GJQsqaUBKTNV-1">
          <mxGeometry x="640" y="790" width="120" height="20" as="geometry" />
        </mxCell>
        <mxCell id="XBZPvO9veB1cNfj0JrcV-30" style="edgeStyle=orthogonalEdgeStyle;shape=connector;rounded=0;orthogonalLoop=1;jettySize=auto;html=1;exitX=0;exitY=0.5;exitDx=0;exitDy=0;entryX=1;entryY=0.5;entryDx=0;entryDy=0;labelBackgroundColor=default;strokeColor=default;align=center;verticalAlign=middle;fontFamily=Helvetica;fontSize=11;fontColor=default;endArrow=block;endFill=0;" edge="1" parent="WIyWlLk6GJQsqaUBKTNV-1" source="XBZPvO9veB1cNfj0JrcV-29" target="XBZPvO9veB1cNfj0JrcV-25">
          <mxGeometry relative="1" as="geometry" />
        </mxCell>
        <mxCell id="XBZPvO9veB1cNfj0JrcV-29" value="ElemCylinderLensS" style="rounded=0;whiteSpace=wrap;html=1;fontFamily=Helvetica;fontSize=11;fontColor=default;" vertex="1" parent="WIyWlLk6GJQsqaUBKTNV-1">
          <mxGeometry x="640" y="830" width="120" height="20" as="geometry" />
        </mxCell>
        <mxCell id="XBZPvO9veB1cNfj0JrcV-32" style="edgeStyle=orthogonalEdgeStyle;shape=connector;rounded=0;orthogonalLoop=1;jettySize=auto;html=1;exitX=0;exitY=0.5;exitDx=0;exitDy=0;entryX=1;entryY=0.5;entryDx=0;entryDy=0;labelBackgroundColor=default;strokeColor=default;align=center;verticalAlign=middle;fontFamily=Helvetica;fontSize=11;fontColor=default;endArrow=block;endFill=0;" edge="1" parent="WIyWlLk6GJQsqaUBKTNV-1" source="XBZPvO9veB1cNfj0JrcV-31" target="XBZPvO9veB1cNfj0JrcV-9">
          <mxGeometry relative="1" as="geometry" />
        </mxCell>
        <mxCell id="XBZPvO9veB1cNfj0JrcV-31" value="ElemTiltedCrystal" style="rounded=0;whiteSpace=wrap;html=1;fontFamily=Helvetica;fontSize=11;fontColor=default;" vertex="1" parent="WIyWlLk6GJQsqaUBKTNV-1">
          <mxGeometry x="440" y="220" width="130" height="20" as="geometry" />
        </mxCell>
        <mxCell id="XBZPvO9veB1cNfj0JrcV-34" style="edgeStyle=orthogonalEdgeStyle;shape=connector;rounded=0;orthogonalLoop=1;jettySize=auto;html=1;exitX=0;exitY=0.5;exitDx=0;exitDy=0;entryX=1;entryY=0.5;entryDx=0;entryDy=0;labelBackgroundColor=default;strokeColor=default;align=center;verticalAlign=middle;fontFamily=Helvetica;fontSize=11;fontColor=default;endArrow=block;endFill=0;" edge="1" parent="WIyWlLk6GJQsqaUBKTNV-1" source="XBZPvO9veB1cNfj0JrcV-33" target="XBZPvO9veB1cNfj0JrcV-31">
          <mxGeometry relative="1" as="geometry" />
        </mxCell>
        <mxCell id="XBZPvO9veB1cNfj0JrcV-33" value="ElemTiltedPlate" style="rounded=0;whiteSpace=wrap;html=1;fontFamily=Helvetica;fontSize=11;fontColor=default;" vertex="1" parent="WIyWlLk6GJQsqaUBKTNV-1">
          <mxGeometry x="620" y="220" width="120" height="20" as="geometry" />
        </mxCell>
        <mxCell id="XBZPvO9veB1cNfj0JrcV-36" style="edgeStyle=orthogonalEdgeStyle;shape=connector;rounded=0;orthogonalLoop=1;jettySize=auto;html=1;exitX=0;exitY=0.5;exitDx=0;exitDy=0;entryX=1;entryY=0.5;entryDx=0;entryDy=0;labelBackgroundColor=default;strokeColor=default;align=center;verticalAlign=middle;fontFamily=Helvetica;fontSize=11;fontColor=default;endArrow=block;endFill=0;" edge="1" parent="WIyWlLk6GJQsqaUBKTNV-1" source="XBZPvO9veB1cNfj0JrcV-35" target="XBZPvO9veB1cNfj0JrcV-9">
          <mxGeometry relative="1" as="geometry" />
        </mxCell>
        <mxCell id="XBZPvO9veB1cNfj0JrcV-35" value="ElemBrewsterCrystal" style="rounded=0;whiteSpace=wrap;html=1;fontFamily=Helvetica;fontSize=11;fontColor=default;" vertex="1" parent="WIyWlLk6GJQsqaUBKTNV-1">
          <mxGeometry x="440" y="250" width="130" height="20" as="geometry" />
        </mxCell>
        <mxCell id="XBZPvO9veB1cNfj0JrcV-38" style="edgeStyle=orthogonalEdgeStyle;shape=connector;rounded=0;orthogonalLoop=1;jettySize=auto;html=1;exitX=0;exitY=0.5;exitDx=0;exitDy=0;entryX=1;entryY=0.5;entryDx=0;entryDy=0;labelBackgroundColor=default;strokeColor=default;align=center;verticalAlign=middle;fontFamily=Helvetica;fontSize=11;fontColor=default;endArrow=block;endFill=0;" edge="1" parent="WIyWlLk6GJQsqaUBKTNV-1" source="XBZPvO9veB1cNfj0JrcV-37" target="XBZPvO9veB1cNfj0JrcV-9">
          <mxGeometry relative="1" as="geometry" />
        </mxCell>
        <mxCell id="XBZPvO9veB1cNfj0JrcV-37" value="ElemBrewsterPlate" style="rounded=0;whiteSpace=wrap;html=1;fontFamily=Helvetica;fontSize=11;fontColor=default;" vertex="1" parent="WIyWlLk6GJQsqaUBKTNV-1">
          <mxGeometry x="440" y="280" width="130" height="20" as="geometry" />
        </mxCell>
        <mxCell id="XBZPvO9veB1cNfj0JrcV-40" style="edgeStyle=orthogonalEdgeStyle;shape=connector;rounded=0;orthogonalLoop=1;jettySize=auto;html=1;exitX=0;exitY=0.5;exitDx=0;exitDy=0;entryX=0.75;entryY=1;entryDx=0;entryDy=0;labelBackgroundColor=default;strokeColor=default;align=center;verticalAlign=middle;fontFamily=Helvetica;fontSize=11;fontColor=default;endArrow=block;endFill=0;" edge="1" parent="WIyWlLk6GJQsqaUBKTNV-1" source="XBZPvO9veB1cNfj0JrcV-39" target="XBZPvO9veB1cNfj0JrcV-7">
          <mxGeometry relative="1" as="geometry" />
        </mxCell>
        <mxCell id="XBZPvO9veB1cNfj0JrcV-39" value="ElemMatrix" style="rounded=0;whiteSpace=wrap;html=1;fontFamily=Helvetica;fontSize=11;fontColor=default;" vertex="1" parent="WIyWlLk6GJQsqaUBKTNV-1">
          <mxGeometry x="440" y="840" width="130" height="20" as="geometry" />
        </mxCell>
        <mxCell id="XBZPvO9veB1cNfj0JrcV-42" style="edgeStyle=orthogonalEdgeStyle;shape=connector;rounded=0;orthogonalLoop=1;jettySize=auto;html=1;exitX=0;exitY=0.5;exitDx=0;exitDy=0;entryX=0.75;entryY=1;entryDx=0;entryDy=0;labelBackgroundColor=default;strokeColor=default;align=center;verticalAlign=middle;fontFamily=Helvetica;fontSize=11;fontColor=default;endArrow=block;endFill=0;" edge="1" parent="WIyWlLk6GJQsqaUBKTNV-1" source="XBZPvO9veB1cNfj0JrcV-41" target="XBZPvO9veB1cNfj0JrcV-7">
          <mxGeometry relative="1" as="geometry" />
        </mxCell>
        <mxCell id="XBZPvO9veB1cNfj0JrcV-41" value="ElemMatrix1" style="rounded=0;whiteSpace=wrap;html=1;fontFamily=Helvetica;fontSize=11;fontColor=default;" vertex="1" parent="WIyWlLk6GJQsqaUBKTNV-1">
          <mxGeometry x="440" y="870" width="130" height="20" as="geometry" />
        </mxCell>
        <mxCell id="XBZPvO9veB1cNfj0JrcV-44" style="edgeStyle=orthogonalEdgeStyle;shape=connector;rounded=0;orthogonalLoop=1;jettySize=auto;html=1;exitX=0;exitY=0.5;exitDx=0;exitDy=0;entryX=0.75;entryY=1;entryDx=0;entryDy=0;labelBackgroundColor=default;strokeColor=default;align=center;verticalAlign=middle;fontFamily=Helvetica;fontSize=11;fontColor=default;endArrow=block;endFill=0;" edge="1" parent="WIyWlLk6GJQsqaUBKTNV-1" source="XBZPvO9veB1cNfj0JrcV-43" target="XBZPvO9veB1cNfj0JrcV-7">
          <mxGeometry relative="1" as="geometry" />
        </mxCell>
        <mxCell id="XBZPvO9veB1cNfj0JrcV-43" value="ElemPoint" style="rounded=0;whiteSpace=wrap;html=1;fontFamily=Helvetica;fontSize=11;fontColor=default;" vertex="1" parent="WIyWlLk6GJQsqaUBKTNV-1">
          <mxGeometry x="440" y="900" width="130" height="20" as="geometry" />
        </mxCell>
        <mxCell id="XBZPvO9veB1cNfj0JrcV-46" style="edgeStyle=orthogonalEdgeStyle;shape=connector;rounded=0;orthogonalLoop=1;jettySize=auto;html=1;exitX=0;exitY=0.5;exitDx=0;exitDy=0;entryX=1;entryY=0.5;entryDx=0;entryDy=0;labelBackgroundColor=default;strokeColor=default;align=center;verticalAlign=middle;fontFamily=Helvetica;fontSize=11;fontColor=default;endArrow=block;endFill=0;" edge="1" parent="WIyWlLk6GJQsqaUBKTNV-1" source="XBZPvO9veB1cNfj0JrcV-45" target="XBZPvO9veB1cNfj0JrcV-11">
          <mxGeometry relative="1" as="geometry" />
        </mxCell>
        <mxCell id="XBZPvO9veB1cNfj0JrcV-45" value="ElemNormalInterface" style="rounded=0;whiteSpace=wrap;html=1;fontFamily=Helvetica;fontSize=11;fontColor=default;" vertex="1" parent="WIyWlLk6GJQsqaUBKTNV-1">
          <mxGeometry x="440" y="530" width="130" height="20" as="geometry" />
        </mxCell>
        <mxCell id="XBZPvO9veB1cNfj0JrcV-48" style="edgeStyle=orthogonalEdgeStyle;shape=connector;rounded=0;orthogonalLoop=1;jettySize=auto;html=1;exitX=0;exitY=0.5;exitDx=0;exitDy=0;entryX=1;entryY=0.5;entryDx=0;entryDy=0;labelBackgroundColor=default;strokeColor=default;align=center;verticalAlign=middle;fontFamily=Helvetica;fontSize=11;fontColor=default;endArrow=block;endFill=0;" edge="1" parent="WIyWlLk6GJQsqaUBKTNV-1" source="XBZPvO9veB1cNfj0JrcV-47" target="XBZPvO9veB1cNfj0JrcV-11">
          <mxGeometry relative="1" as="geometry" />
        </mxCell>
        <mxCell id="XBZPvO9veB1cNfj0JrcV-47" value="ElemBrewsterInterface" style="rounded=0;whiteSpace=wrap;html=1;fontFamily=Helvetica;fontSize=11;fontColor=default;" vertex="1" parent="WIyWlLk6GJQsqaUBKTNV-1">
          <mxGeometry x="440" y="560" width="130" height="20" as="geometry" />
        </mxCell>
        <mxCell id="XBZPvO9veB1cNfj0JrcV-50" style="edgeStyle=orthogonalEdgeStyle;shape=connector;rounded=0;orthogonalLoop=1;jettySize=auto;html=1;exitX=0;exitY=0.5;exitDx=0;exitDy=0;entryX=1;entryY=0.5;entryDx=0;entryDy=0;labelBackgroundColor=default;strokeColor=default;align=center;verticalAlign=middle;fontFamily=Helvetica;fontSize=11;fontColor=default;endArrow=block;endFill=0;" edge="1" parent="WIyWlLk6GJQsqaUBKTNV-1" source="XBZPvO9veB1cNfj0JrcV-49" target="XBZPvO9veB1cNfj0JrcV-11">
          <mxGeometry relative="1" as="geometry" />
        </mxCell>
        <mxCell id="XBZPvO9veB1cNfj0JrcV-49" value="ElemTiltedInterface" style="rounded=0;whiteSpace=wrap;html=1;fontFamily=Helvetica;fontSize=11;fontColor=default;" vertex="1" parent="WIyWlLk6GJQsqaUBKTNV-1">
          <mxGeometry x="440" y="590" width="130" height="20" as="geometry" />
        </mxCell>
        <mxCell id="XBZPvO9veB1cNfj0JrcV-52" style="edgeStyle=orthogonalEdgeStyle;shape=connector;rounded=0;orthogonalLoop=1;jettySize=auto;html=1;exitX=0;exitY=0.5;exitDx=0;exitDy=0;entryX=1;entryY=0.5;entryDx=0;entryDy=0;labelBackgroundColor=default;strokeColor=default;align=center;verticalAlign=middle;fontFamily=Helvetica;fontSize=11;fontColor=default;endArrow=block;endFill=0;" edge="1" parent="WIyWlLk6GJQsqaUBKTNV-1" source="XBZPvO9veB1cNfj0JrcV-51" target="XBZPvO9veB1cNfj0JrcV-11">
          <mxGeometry relative="1" as="geometry" />
        </mxCell>
        <mxCell id="XBZPvO9veB1cNfj0JrcV-51" value="ElemSphericalInterface" style="rounded=0;whiteSpace=wrap;html=1;fontFamily=Helvetica;fontSize=11;fontColor=default;" vertex="1" parent="WIyWlLk6GJQsqaUBKTNV-1">
          <mxGeometry x="440" y="620" width="130" height="20" as="geometry" />
        </mxCell>
        <mxCell id="XBZPvO9veB1cNfj0JrcV-54" style="edgeStyle=orthogonalEdgeStyle;shape=connector;rounded=0;orthogonalLoop=1;jettySize=auto;html=1;exitX=0;exitY=0.5;exitDx=0;exitDy=0;entryX=1;entryY=0.5;entryDx=0;entryDy=0;labelBackgroundColor=default;strokeColor=default;align=center;verticalAlign=middle;fontFamily=Helvetica;fontSize=11;fontColor=default;endArrow=block;endFill=0;" edge="1" parent="WIyWlLk6GJQsqaUBKTNV-1" source="XBZPvO9veB1cNfj0JrcV-53" target="XBZPvO9veB1cNfj0JrcV-9">
          <mxGeometry relative="1" as="geometry" />
        </mxCell>
        <mxCell id="XBZPvO9veB1cNfj0JrcV-53" value="ElemThickLens" style="rounded=0;whiteSpace=wrap;html=1;fontFamily=Helvetica;fontSize=11;fontColor=default;" vertex="1" parent="WIyWlLk6GJQsqaUBKTNV-1">
          <mxGeometry x="440" y="310" width="130" height="20" as="geometry" />
        </mxCell>
        <mxCell id="XBZPvO9veB1cNfj0JrcV-56" style="edgeStyle=orthogonalEdgeStyle;shape=connector;rounded=0;orthogonalLoop=1;jettySize=auto;html=1;exitX=0;exitY=0.5;exitDx=0;exitDy=0;entryX=1;entryY=0.5;entryDx=0;entryDy=0;labelBackgroundColor=default;strokeColor=default;align=center;verticalAlign=middle;fontFamily=Helvetica;fontSize=11;fontColor=default;endArrow=block;endFill=0;" edge="1" parent="WIyWlLk6GJQsqaUBKTNV-1" source="XBZPvO9veB1cNfj0JrcV-55" target="XBZPvO9veB1cNfj0JrcV-9">
          <mxGeometry relative="1" as="geometry" />
        </mxCell>
        <mxCell id="XBZPvO9veB1cNfj0JrcV-55" value="ElemGrinLens" style="rounded=0;whiteSpace=wrap;html=1;fontFamily=Helvetica;fontSize=11;fontColor=default;" vertex="1" parent="WIyWlLk6GJQsqaUBKTNV-1">
          <mxGeometry x="440" y="340" width="130" height="20" as="geometry" />
        </mxCell>
        <mxCell id="XBZPvO9veB1cNfj0JrcV-58" style="edgeStyle=orthogonalEdgeStyle;shape=connector;rounded=0;orthogonalLoop=1;jettySize=auto;html=1;exitX=0;exitY=0.5;exitDx=0;exitDy=0;entryX=1;entryY=0.5;entryDx=0;entryDy=0;labelBackgroundColor=default;strokeColor=default;align=center;verticalAlign=middle;fontFamily=Helvetica;fontSize=11;fontColor=default;endArrow=block;endFill=0;" edge="1" parent="WIyWlLk6GJQsqaUBKTNV-1" source="XBZPvO9veB1cNfj0JrcV-57" target="XBZPvO9veB1cNfj0JrcV-17">
          <mxGeometry relative="1" as="geometry" />
        </mxCell>
        <mxCell id="XBZPvO9veB1cNfj0JrcV-57" value="ElemGrinMedium" style="rounded=0;whiteSpace=wrap;html=1;fontFamily=Helvetica;fontSize=11;fontColor=default;" vertex="1" parent="WIyWlLk6GJQsqaUBKTNV-1">
          <mxGeometry x="620" y="140" width="120" height="20" as="geometry" />
        </mxCell>
        <mxCell id="XBZPvO9veB1cNfj0JrcV-60" style="edgeStyle=orthogonalEdgeStyle;shape=connector;rounded=0;orthogonalLoop=1;jettySize=auto;html=1;exitX=0;exitY=0.5;exitDx=0;exitDy=0;entryX=1;entryY=0.5;entryDx=0;entryDy=0;labelBackgroundColor=default;strokeColor=default;align=center;verticalAlign=middle;fontFamily=Helvetica;fontSize=11;fontColor=default;endArrow=block;endFill=0;" edge="1" parent="WIyWlLk6GJQsqaUBKTNV-1" source="XBZPvO9veB1cNfj0JrcV-59" target="XBZPvO9veB1cNfj0JrcV-9">
          <mxGeometry relative="1" as="geometry" />
        </mxCell>
        <mxCell id="XBZPvO9veB1cNfj0JrcV-59" value="ElemThermoLens" style="rounded=0;whiteSpace=wrap;html=1;fontFamily=Helvetica;fontSize=11;fontColor=default;" vertex="1" parent="WIyWlLk6GJQsqaUBKTNV-1">
          <mxGeometry x="440" y="370" width="130" height="20" as="geometry" />
        </mxCell>
        <mxCell id="XBZPvO9veB1cNfj0JrcV-62" style="edgeStyle=orthogonalEdgeStyle;shape=connector;rounded=0;orthogonalLoop=1;jettySize=auto;html=1;exitX=0;exitY=0.5;exitDx=0;exitDy=0;entryX=1;entryY=0.5;entryDx=0;entryDy=0;labelBackgroundColor=default;strokeColor=default;align=center;verticalAlign=middle;fontFamily=Helvetica;fontSize=11;fontColor=default;endArrow=block;endFill=0;" edge="1" parent="WIyWlLk6GJQsqaUBKTNV-1" source="XBZPvO9veB1cNfj0JrcV-61" target="XBZPvO9veB1cNfj0JrcV-17">
          <mxGeometry relative="1" as="geometry" />
        </mxCell>
        <mxCell id="XBZPvO9veB1cNfj0JrcV-61" value="ElemThermoMedium" style="rounded=0;whiteSpace=wrap;html=1;fontFamily=Helvetica;fontSize=11;fontColor=default;" vertex="1" parent="WIyWlLk6GJQsqaUBKTNV-1">
          <mxGeometry x="620" y="180" width="120" height="20" as="geometry" />
        </mxCell>
        <mxCell id="XBZPvO9veB1cNfj0JrcV-64" style="edgeStyle=orthogonalEdgeStyle;shape=connector;rounded=0;orthogonalLoop=1;jettySize=auto;html=1;exitX=0;exitY=0.5;exitDx=0;exitDy=0;entryX=1;entryY=0.5;entryDx=0;entryDy=0;labelBackgroundColor=default;strokeColor=default;align=center;verticalAlign=middle;fontFamily=Helvetica;fontSize=11;fontColor=default;endArrow=block;endFill=0;" edge="1" parent="WIyWlLk6GJQsqaUBKTNV-1" source="XBZPvO9veB1cNfj0JrcV-63" target="XBZPvO9veB1cNfj0JrcV-13">
          <mxGeometry relative="1" as="geometry" />
        </mxCell>
        <mxCell id="XBZPvO9veB1cNfj0JrcV-63" value="ElemAxiconMirror" style="rounded=0;whiteSpace=wrap;html=1;fontFamily=Helvetica;fontSize=11;fontColor=default;" vertex="1" parent="WIyWlLk6GJQsqaUBKTNV-1">
          <mxGeometry x="440" y="670" width="130" height="20" as="geometry" />
        </mxCell>
        <mxCell id="XBZPvO9veB1cNfj0JrcV-66" style="edgeStyle=orthogonalEdgeStyle;shape=connector;rounded=0;orthogonalLoop=1;jettySize=auto;html=1;exitX=0;exitY=0.5;exitDx=0;exitDy=0;entryX=1;entryY=0.5;entryDx=0;entryDy=0;labelBackgroundColor=default;strokeColor=default;align=center;verticalAlign=middle;fontFamily=Helvetica;fontSize=11;fontColor=default;endArrow=block;endFill=0;" edge="1" parent="WIyWlLk6GJQsqaUBKTNV-1" source="XBZPvO9veB1cNfj0JrcV-65" target="XBZPvO9veB1cNfj0JrcV-13">
          <mxGeometry relative="1" as="geometry" />
        </mxCell>
        <mxCell id="XBZPvO9veB1cNfj0JrcV-65" value="ElemAxiconLens" style="rounded=0;whiteSpace=wrap;html=1;fontFamily=Helvetica;fontSize=11;fontColor=default;" vertex="1" parent="WIyWlLk6GJQsqaUBKTNV-1">
          <mxGeometry x="440" y="700" width="130" height="20" as="geometry" />
        </mxCell>
        <mxCell id="XBZPvO9veB1cNfj0JrcV-68" style="edgeStyle=orthogonalEdgeStyle;shape=connector;rounded=0;orthogonalLoop=1;jettySize=auto;html=1;exitX=0;exitY=0.5;exitDx=0;exitDy=0;entryX=0.75;entryY=1;entryDx=0;entryDy=0;labelBackgroundColor=default;strokeColor=default;align=center;verticalAlign=middle;fontFamily=Helvetica;fontSize=11;fontColor=default;endArrow=block;endFill=0;" edge="1" parent="WIyWlLk6GJQsqaUBKTNV-1" source="XBZPvO9veB1cNfj0JrcV-67" target="XBZPvO9veB1cNfj0JrcV-7">
          <mxGeometry relative="1" as="geometry" />
        </mxCell>
        <mxCell id="XBZPvO9veB1cNfj0JrcV-67" value="ElemGaussAperture" style="rounded=0;whiteSpace=wrap;html=1;fontFamily=Helvetica;fontSize=11;fontColor=default;" vertex="1" parent="WIyWlLk6GJQsqaUBKTNV-1">
          <mxGeometry x="440" y="930" width="130" height="20" as="geometry" />
        </mxCell>
        <mxCell id="XBZPvO9veB1cNfj0JrcV-70" style="edgeStyle=orthogonalEdgeStyle;shape=connector;rounded=0;orthogonalLoop=1;jettySize=auto;html=1;exitX=0;exitY=0.5;exitDx=0;exitDy=0;entryX=0.75;entryY=1;entryDx=0;entryDy=0;labelBackgroundColor=default;strokeColor=default;align=center;verticalAlign=middle;fontFamily=Helvetica;fontSize=11;fontColor=default;endArrow=block;endFill=0;" edge="1" parent="WIyWlLk6GJQsqaUBKTNV-1" source="XBZPvO9veB1cNfj0JrcV-69" target="XBZPvO9veB1cNfj0JrcV-7">
          <mxGeometry relative="1" as="geometry" />
        </mxCell>
        <mxCell id="XBZPvO9veB1cNfj0JrcV-69" value="ElemGaussApertureLens" style="rounded=0;whiteSpace=wrap;html=1;fontFamily=Helvetica;fontSize=11;fontColor=default;" vertex="1" parent="WIyWlLk6GJQsqaUBKTNV-1">
          <mxGeometry x="440" y="960" width="130" height="20" as="geometry" />
        </mxCell>
        <mxCell id="XBZPvO9veB1cNfj0JrcV-72" style="edgeStyle=orthogonalEdgeStyle;shape=connector;rounded=0;orthogonalLoop=1;jettySize=auto;html=1;exitX=0;exitY=0.5;exitDx=0;exitDy=0;entryX=1;entryY=0.5;entryDx=0;entryDy=0;labelBackgroundColor=default;strokeColor=default;align=center;verticalAlign=middle;fontFamily=Helvetica;fontSize=11;fontColor=default;endArrow=block;endFill=0;" edge="1" parent="WIyWlLk6GJQsqaUBKTNV-1" source="XBZPvO9veB1cNfj0JrcV-71" target="XBZPvO9veB1cNfj0JrcV-9">
          <mxGeometry relative="1" as="geometry" />
        </mxCell>
        <mxCell id="XBZPvO9veB1cNfj0JrcV-71" value="ElemGaussDuctMedium" style="rounded=0;whiteSpace=wrap;html=1;fontFamily=Helvetica;fontSize=11;fontColor=default;" vertex="1" parent="WIyWlLk6GJQsqaUBKTNV-1">
          <mxGeometry x="440" y="400" width="130" height="20" as="geometry" />
        </mxCell>
        <mxCell id="XBZPvO9veB1cNfj0JrcV-74" style="edgeStyle=orthogonalEdgeStyle;shape=connector;rounded=0;orthogonalLoop=1;jettySize=auto;html=1;exitX=0;exitY=0.5;exitDx=0;exitDy=0;entryX=1;entryY=0.5;entryDx=0;entryDy=0;labelBackgroundColor=default;strokeColor=default;align=center;verticalAlign=middle;fontFamily=Helvetica;fontSize=11;fontColor=default;endArrow=block;endFill=0;" edge="1" parent="WIyWlLk6GJQsqaUBKTNV-1" source="XBZPvO9veB1cNfj0JrcV-73" target="XBZPvO9veB1cNfj0JrcV-9">
          <mxGeometry relative="1" as="geometry" />
        </mxCell>
        <mxCell id="XBZPvO9veB1cNfj0JrcV-73" value="ElemGaussDuctSlab" style="rounded=0;whiteSpace=wrap;html=1;fontFamily=Helvetica;fontSize=11;fontColor=default;" vertex="1" parent="WIyWlLk6GJQsqaUBKTNV-1">
          <mxGeometry x="440" y="430" width="130" height="20" as="geometry" />
        </mxCell>
        <mxCell id="XBZPvO9veB1cNfj0JrcV-77" style="edgeStyle=orthogonalEdgeStyle;shape=connector;rounded=0;orthogonalLoop=1;jettySize=auto;html=1;exitX=0;exitY=0.5;exitDx=0;exitDy=0;entryX=1;entryY=0.5;entryDx=0;entryDy=0;labelBackgroundColor=default;strokeColor=default;align=center;verticalAlign=middle;fontFamily=Helvetica;fontSize=11;fontColor=default;endArrow=block;endFill=0;" edge="1" parent="WIyWlLk6GJQsqaUBKTNV-1" source="XBZPvO9veB1cNfj0JrcV-76" target="XBZPvO9veB1cNfj0JrcV-7">
          <mxGeometry relative="1" as="geometry" />
        </mxCell>
        <mxCell id="XBZPvO9veB1cNfj0JrcV-76" value="ElemFormula" style="rounded=0;whiteSpace=wrap;html=1;" vertex="1" parent="WIyWlLk6GJQsqaUBKTNV-1">
          <mxGeometry x="440" y="480" width="130" height="20" as="geometry" />
        </mxCell>
      </root>
    </mxGraphModel>
  </diagram>
  <diagram id="UdHuBXXIvzNVsBaniEkU" name="Functions">
    <mxGraphModel dx="1195" dy="797" grid="1" gridSize="10" guides="1" tooltips="1" connect="1" arrows="1" fold="1" page="1" pageScale="1" pageWidth="827" pageHeight="1169" math="0" shadow="0">
      <root>
        <mxCell id="0" />
        <mxCell id="1" parent="0" />
        <mxCell id="aE2q7IgJIMaWvHEXLfm5-3" style="edgeStyle=orthogonalEdgeStyle;shape=connector;rounded=0;orthogonalLoop=1;jettySize=auto;html=1;exitX=0;exitY=0.5;exitDx=0;exitDy=0;entryX=1;entryY=0.5;entryDx=0;entryDy=0;labelBackgroundColor=default;strokeColor=default;align=center;verticalAlign=middle;fontFamily=Helvetica;fontSize=11;fontColor=default;endArrow=block;endFill=0;" edge="1" parent="1" source="aE2q7IgJIMaWvHEXLfm5-1" target="aE2q7IgJIMaWvHEXLfm5-2">
          <mxGeometry relative="1" as="geometry" />
        </mxCell>
        <mxCell id="aE2q7IgJIMaWvHEXLfm5-1" value="PlotFunction" style="rounded=0;whiteSpace=wrap;html=1;fontFamily=Helvetica;fontSize=11;fontColor=default;" vertex="1" parent="1">
          <mxGeometry x="320" y="290" width="120" height="40" as="geometry" />
        </mxCell>
        <mxCell id="aE2q7IgJIMaWvHEXLfm5-35" style="edgeStyle=orthogonalEdgeStyle;shape=connector;rounded=0;orthogonalLoop=1;jettySize=auto;html=1;exitX=0.5;exitY=1;exitDx=0;exitDy=0;entryX=0.5;entryY=0;entryDx=0;entryDy=0;labelBackgroundColor=default;strokeColor=default;align=center;verticalAlign=middle;fontFamily=Helvetica;fontSize=11;fontColor=default;endArrow=block;endFill=0;" edge="1" parent="1" source="aE2q7IgJIMaWvHEXLfm5-2" target="aE2q7IgJIMaWvHEXLfm5-34">
          <mxGeometry relative="1" as="geometry" />
        </mxCell>
        <mxCell id="aE2q7IgJIMaWvHEXLfm5-2" value="FunctionBase" style="rounded=0;whiteSpace=wrap;html=1;fontFamily=Helvetica;fontSize=11;fontColor=default;" vertex="1" parent="1">
          <mxGeometry x="120" y="360" width="120" height="40" as="geometry" />
        </mxCell>
        <mxCell id="aE2q7IgJIMaWvHEXLfm5-6" style="edgeStyle=orthogonalEdgeStyle;shape=connector;rounded=0;orthogonalLoop=1;jettySize=auto;html=1;exitX=0;exitY=0.5;exitDx=0;exitDy=0;entryX=1;entryY=0.5;entryDx=0;entryDy=0;labelBackgroundColor=default;strokeColor=default;align=center;verticalAlign=middle;fontFamily=Helvetica;fontSize=11;fontColor=default;endArrow=block;endFill=0;" edge="1" parent="1" source="aE2q7IgJIMaWvHEXLfm5-4" target="aE2q7IgJIMaWvHEXLfm5-1">
          <mxGeometry relative="1" as="geometry" />
        </mxCell>
        <mxCell id="aE2q7IgJIMaWvHEXLfm5-4" value="StabilityMap2DFunction" style="rounded=0;whiteSpace=wrap;html=1;fontFamily=Helvetica;fontSize=11;fontColor=default;" vertex="1" parent="1">
          <mxGeometry x="520" y="280" width="150" height="30" as="geometry" />
        </mxCell>
        <mxCell id="aE2q7IgJIMaWvHEXLfm5-7" style="edgeStyle=orthogonalEdgeStyle;shape=connector;rounded=0;orthogonalLoop=1;jettySize=auto;html=1;exitX=0;exitY=0.5;exitDx=0;exitDy=0;entryX=1;entryY=0.5;entryDx=0;entryDy=0;labelBackgroundColor=default;strokeColor=default;align=center;verticalAlign=middle;fontFamily=Helvetica;fontSize=11;fontColor=default;endArrow=block;endFill=0;" edge="1" parent="1" source="aE2q7IgJIMaWvHEXLfm5-5" target="aE2q7IgJIMaWvHEXLfm5-1">
          <mxGeometry relative="1" as="geometry" />
        </mxCell>
        <mxCell id="aE2q7IgJIMaWvHEXLfm5-5" value="StabilityMapFunction" style="rounded=0;whiteSpace=wrap;html=1;fontFamily=Helvetica;fontSize=11;fontColor=default;" vertex="1" parent="1">
          <mxGeometry x="520" y="320" width="150" height="30" as="geometry" />
        </mxCell>
        <mxCell id="aE2q7IgJIMaWvHEXLfm5-9" style="edgeStyle=orthogonalEdgeStyle;shape=connector;rounded=0;orthogonalLoop=1;jettySize=auto;html=1;exitX=0;exitY=0.5;exitDx=0;exitDy=0;entryX=1;entryY=0.5;entryDx=0;entryDy=0;labelBackgroundColor=default;strokeColor=default;align=center;verticalAlign=middle;fontFamily=Helvetica;fontSize=11;fontColor=default;endArrow=block;endFill=0;" edge="1" parent="1" source="aE2q7IgJIMaWvHEXLfm5-8" target="aE2q7IgJIMaWvHEXLfm5-2">
          <mxGeometry relative="1" as="geometry" />
        </mxCell>
        <mxCell id="aE2q7IgJIMaWvHEXLfm5-8" value="TableFunction" style="rounded=0;whiteSpace=wrap;html=1;fontFamily=Helvetica;fontSize=11;fontColor=default;" vertex="1" parent="1">
          <mxGeometry x="320" y="465" width="120" height="40" as="geometry" />
        </mxCell>
        <mxCell id="aE2q7IgJIMaWvHEXLfm5-37" style="edgeStyle=orthogonalEdgeStyle;shape=connector;rounded=0;orthogonalLoop=1;jettySize=auto;html=1;exitX=0;exitY=0.5;exitDx=0;exitDy=0;entryX=1;entryY=0.5;entryDx=0;entryDy=0;labelBackgroundColor=default;strokeColor=default;align=center;verticalAlign=middle;fontFamily=Helvetica;fontSize=11;fontColor=default;endArrow=block;endFill=0;" edge="1" parent="1" source="aE2q7IgJIMaWvHEXLfm5-10" target="aE2q7IgJIMaWvHEXLfm5-2">
          <mxGeometry relative="1" as="geometry" />
        </mxCell>
        <mxCell id="aE2q7IgJIMaWvHEXLfm5-10" value="InfoFunction" style="rounded=0;whiteSpace=wrap;html=1;fontFamily=Helvetica;fontSize=11;fontColor=default;" vertex="1" parent="1">
          <mxGeometry x="320" y="680" width="120" height="40" as="geometry" />
        </mxCell>
        <mxCell id="aE2q7IgJIMaWvHEXLfm5-11" value="FunctionListener" style="rounded=0;whiteSpace=wrap;html=1;fontFamily=Helvetica;fontSize=11;fontColor=default;" vertex="1" parent="1">
          <mxGeometry x="120" y="530" width="120" height="30" as="geometry" />
        </mxCell>
        <mxCell id="aE2q7IgJIMaWvHEXLfm5-12" style="edgeStyle=orthogonalEdgeStyle;shape=connector;rounded=0;orthogonalLoop=1;jettySize=auto;html=1;exitX=0.5;exitY=1;exitDx=0;exitDy=0;labelBackgroundColor=default;strokeColor=default;align=center;verticalAlign=middle;fontFamily=Helvetica;fontSize=11;fontColor=default;endArrow=block;endFill=0;" edge="1" parent="1" source="aE2q7IgJIMaWvHEXLfm5-11" target="aE2q7IgJIMaWvHEXLfm5-11">
          <mxGeometry relative="1" as="geometry" />
        </mxCell>
        <mxCell id="aE2q7IgJIMaWvHEXLfm5-14" style="edgeStyle=orthogonalEdgeStyle;shape=connector;rounded=0;orthogonalLoop=1;jettySize=auto;html=1;exitX=0;exitY=0.75;exitDx=0;exitDy=0;entryX=1;entryY=0.5;entryDx=0;entryDy=0;labelBackgroundColor=default;strokeColor=default;align=center;verticalAlign=middle;fontFamily=Helvetica;fontSize=11;fontColor=default;endArrow=block;endFill=0;" edge="1" parent="1" source="aE2q7IgJIMaWvHEXLfm5-13" target="aE2q7IgJIMaWvHEXLfm5-10">
          <mxGeometry relative="1" as="geometry" />
        </mxCell>
        <mxCell id="aE2q7IgJIMaWvHEXLfm5-15" style="edgeStyle=orthogonalEdgeStyle;shape=connector;rounded=0;orthogonalLoop=1;jettySize=auto;html=1;entryX=1;entryY=0.5;entryDx=0;entryDy=0;labelBackgroundColor=default;strokeColor=default;align=center;verticalAlign=middle;fontFamily=Helvetica;fontSize=11;fontColor=default;endArrow=oval;endFill=0;exitX=0;exitY=0.5;exitDx=0;exitDy=0;" edge="1" parent="1" source="aE2q7IgJIMaWvHEXLfm5-13" target="aE2q7IgJIMaWvHEXLfm5-11">
          <mxGeometry relative="1" as="geometry">
            <mxPoint x="470" y="520" as="sourcePoint" />
          </mxGeometry>
        </mxCell>
        <mxCell id="aE2q7IgJIMaWvHEXLfm5-13" value="PlotFuncRoundTripFunction" style="rounded=0;whiteSpace=wrap;html=1;fontFamily=Helvetica;fontSize=11;fontColor=default;" vertex="1" parent="1">
          <mxGeometry x="520" y="530" width="150" height="30" as="geometry" />
        </mxCell>
        <mxCell id="aE2q7IgJIMaWvHEXLfm5-17" style="edgeStyle=orthogonalEdgeStyle;shape=connector;rounded=0;orthogonalLoop=1;jettySize=auto;html=1;exitX=0;exitY=0.5;exitDx=0;exitDy=0;entryX=1;entryY=0.5;entryDx=0;entryDy=0;labelBackgroundColor=default;strokeColor=default;align=center;verticalAlign=middle;fontFamily=Helvetica;fontSize=11;fontColor=default;endArrow=block;endFill=0;" edge="1" parent="1" source="aE2q7IgJIMaWvHEXLfm5-16" target="aE2q7IgJIMaWvHEXLfm5-1">
          <mxGeometry relative="1" as="geometry" />
        </mxCell>
        <mxCell id="aE2q7IgJIMaWvHEXLfm5-16" value="MultirangeCausticFunction" style="rounded=0;whiteSpace=wrap;html=1;fontFamily=Helvetica;fontSize=11;fontColor=default;" vertex="1" parent="1">
          <mxGeometry x="520" y="360" width="150" height="30" as="geometry" />
        </mxCell>
        <mxCell id="aE2q7IgJIMaWvHEXLfm5-19" style="edgeStyle=orthogonalEdgeStyle;shape=connector;rounded=0;orthogonalLoop=1;jettySize=auto;html=1;exitX=0.5;exitY=0;exitDx=0;exitDy=0;entryX=0.5;entryY=1;entryDx=0;entryDy=0;labelBackgroundColor=default;strokeColor=default;align=center;verticalAlign=middle;fontFamily=Helvetica;fontSize=11;fontColor=default;endArrow=block;endFill=0;" edge="1" parent="1" source="aE2q7IgJIMaWvHEXLfm5-18" target="aE2q7IgJIMaWvHEXLfm5-16">
          <mxGeometry relative="1" as="geometry" />
        </mxCell>
        <mxCell id="aE2q7IgJIMaWvHEXLfm5-18" value="MultibeamCausticFunction" style="rounded=0;whiteSpace=wrap;html=1;fontFamily=Helvetica;fontSize=11;fontColor=default;" vertex="1" parent="1">
          <mxGeometry x="520" y="410" width="150" height="30" as="geometry" />
        </mxCell>
        <mxCell id="aE2q7IgJIMaWvHEXLfm5-21" style="edgeStyle=orthogonalEdgeStyle;shape=connector;rounded=0;orthogonalLoop=1;jettySize=auto;html=1;exitX=0;exitY=0.5;exitDx=0;exitDy=0;entryX=1;entryY=0.5;entryDx=0;entryDy=0;labelBackgroundColor=default;strokeColor=default;align=center;verticalAlign=middle;fontFamily=Helvetica;fontSize=11;fontColor=default;endArrow=block;endFill=0;" edge="1" parent="1" source="aE2q7IgJIMaWvHEXLfm5-20" target="aE2q7IgJIMaWvHEXLfm5-10">
          <mxGeometry relative="1" as="geometry" />
        </mxCell>
        <mxCell id="aE2q7IgJIMaWvHEXLfm5-20" value="InfoFuncMatrix" style="rounded=0;whiteSpace=wrap;html=1;fontFamily=Helvetica;fontSize=11;fontColor=default;" vertex="1" parent="1">
          <mxGeometry x="520" y="580" width="150" height="30" as="geometry" />
        </mxCell>
        <mxCell id="aE2q7IgJIMaWvHEXLfm5-23" style="edgeStyle=orthogonalEdgeStyle;shape=connector;rounded=0;orthogonalLoop=1;jettySize=auto;html=1;exitX=0;exitY=0.5;exitDx=0;exitDy=0;entryX=1;entryY=0.5;entryDx=0;entryDy=0;labelBackgroundColor=default;strokeColor=default;align=center;verticalAlign=middle;fontFamily=Helvetica;fontSize=11;fontColor=default;endArrow=block;endFill=0;" edge="1" parent="1" source="aE2q7IgJIMaWvHEXLfm5-22" target="aE2q7IgJIMaWvHEXLfm5-10">
          <mxGeometry relative="1" as="geometry" />
        </mxCell>
        <mxCell id="aE2q7IgJIMaWvHEXLfm5-22" value="InfoFuncMatrices" style="rounded=0;whiteSpace=wrap;html=1;fontFamily=Helvetica;fontSize=11;fontColor=default;" vertex="1" parent="1">
          <mxGeometry x="520" y="620" width="150" height="30" as="geometry" />
        </mxCell>
        <mxCell id="aE2q7IgJIMaWvHEXLfm5-25" style="edgeStyle=orthogonalEdgeStyle;shape=connector;rounded=0;orthogonalLoop=1;jettySize=auto;html=1;exitX=0.5;exitY=0;exitDx=0;exitDy=0;labelBackgroundColor=default;strokeColor=default;align=center;verticalAlign=middle;fontFamily=Helvetica;fontSize=11;fontColor=default;endArrow=block;endFill=0;entryX=0.5;entryY=1;entryDx=0;entryDy=0;" edge="1" parent="1" source="aE2q7IgJIMaWvHEXLfm5-24" target="aE2q7IgJIMaWvHEXLfm5-22">
          <mxGeometry relative="1" as="geometry">
            <mxPoint x="710" y="650" as="targetPoint" />
          </mxGeometry>
        </mxCell>
        <mxCell id="aE2q7IgJIMaWvHEXLfm5-24" value="InfoFuncMatrixMultFwd" style="rounded=0;whiteSpace=wrap;html=1;fontFamily=Helvetica;fontSize=11;fontColor=default;" vertex="1" parent="1">
          <mxGeometry x="520" y="670" width="150" height="30" as="geometry" />
        </mxCell>
        <mxCell id="aE2q7IgJIMaWvHEXLfm5-27" style="edgeStyle=orthogonalEdgeStyle;shape=connector;rounded=0;orthogonalLoop=1;jettySize=auto;html=1;exitX=0.5;exitY=0;exitDx=0;exitDy=0;entryX=0.5;entryY=1;entryDx=0;entryDy=0;labelBackgroundColor=default;strokeColor=default;align=center;verticalAlign=middle;fontFamily=Helvetica;fontSize=11;fontColor=default;endArrow=block;endFill=0;" edge="1" parent="1" source="aE2q7IgJIMaWvHEXLfm5-26" target="aE2q7IgJIMaWvHEXLfm5-24">
          <mxGeometry relative="1" as="geometry" />
        </mxCell>
        <mxCell id="aE2q7IgJIMaWvHEXLfm5-26" value="InfoFuncMatrixMultBkwd" style="rounded=0;whiteSpace=wrap;html=1;fontFamily=Helvetica;fontSize=11;fontColor=default;" vertex="1" parent="1">
          <mxGeometry x="520" y="720" width="150" height="30" as="geometry" />
        </mxCell>
        <mxCell id="aE2q7IgJIMaWvHEXLfm5-29" style="edgeStyle=orthogonalEdgeStyle;shape=connector;rounded=0;orthogonalLoop=1;jettySize=auto;html=1;exitX=0;exitY=0.5;exitDx=0;exitDy=0;entryX=1;entryY=0.5;entryDx=0;entryDy=0;labelBackgroundColor=default;strokeColor=default;align=center;verticalAlign=middle;fontFamily=Helvetica;fontSize=11;fontColor=default;endArrow=block;endFill=0;" edge="1" parent="1" source="aE2q7IgJIMaWvHEXLfm5-28" target="aE2q7IgJIMaWvHEXLfm5-10">
          <mxGeometry relative="1" as="geometry" />
        </mxCell>
        <mxCell id="aE2q7IgJIMaWvHEXLfm5-28" value="InfoFuncMatrixRT" style="rounded=0;whiteSpace=wrap;html=1;fontFamily=Helvetica;fontSize=11;fontColor=default;" vertex="1" parent="1">
          <mxGeometry x="520" y="760" width="150" height="30" as="geometry" />
        </mxCell>
        <mxCell id="aE2q7IgJIMaWvHEXLfm5-31" style="edgeStyle=orthogonalEdgeStyle;shape=connector;rounded=0;orthogonalLoop=1;jettySize=auto;html=1;exitX=0;exitY=0.5;exitDx=0;exitDy=0;entryX=1;entryY=0.5;entryDx=0;entryDy=0;labelBackgroundColor=default;strokeColor=default;align=center;verticalAlign=middle;fontFamily=Helvetica;fontSize=11;fontColor=default;endArrow=block;endFill=0;" edge="1" parent="1" source="aE2q7IgJIMaWvHEXLfm5-30" target="aE2q7IgJIMaWvHEXLfm5-10">
          <mxGeometry relative="1" as="geometry" />
        </mxCell>
        <mxCell id="aE2q7IgJIMaWvHEXLfm5-30" value="InfoFuncRepetitionRate" style="rounded=0;whiteSpace=wrap;html=1;fontFamily=Helvetica;fontSize=11;fontColor=default;" vertex="1" parent="1">
          <mxGeometry x="520" y="800" width="150" height="30" as="geometry" />
        </mxCell>
        <mxCell id="aE2q7IgJIMaWvHEXLfm5-33" style="edgeStyle=orthogonalEdgeStyle;shape=connector;rounded=0;orthogonalLoop=1;jettySize=auto;html=1;exitX=0;exitY=0.5;exitDx=0;exitDy=0;entryX=1;entryY=0.5;entryDx=0;entryDy=0;labelBackgroundColor=default;strokeColor=default;align=center;verticalAlign=middle;fontFamily=Helvetica;fontSize=11;fontColor=default;endArrow=block;endFill=0;" edge="1" parent="1" source="aE2q7IgJIMaWvHEXLfm5-32" target="aE2q7IgJIMaWvHEXLfm5-10">
          <mxGeometry relative="1" as="geometry" />
        </mxCell>
        <mxCell id="aE2q7IgJIMaWvHEXLfm5-32" value="InfoFuncSummary" style="rounded=0;whiteSpace=wrap;html=1;fontFamily=Helvetica;fontSize=11;fontColor=default;" vertex="1" parent="1">
          <mxGeometry x="520" y="840" width="150" height="30" as="geometry" />
        </mxCell>
        <mxCell id="aE2q7IgJIMaWvHEXLfm5-36" style="edgeStyle=orthogonalEdgeStyle;shape=connector;rounded=0;orthogonalLoop=1;jettySize=auto;html=1;exitX=0.5;exitY=1;exitDx=0;exitDy=0;entryX=0.5;entryY=0;entryDx=0;entryDy=0;labelBackgroundColor=default;strokeColor=default;align=center;verticalAlign=middle;fontFamily=Helvetica;fontSize=11;fontColor=default;endArrow=open;endFill=0;" edge="1" parent="1" source="aE2q7IgJIMaWvHEXLfm5-34" target="aE2q7IgJIMaWvHEXLfm5-11">
          <mxGeometry relative="1" as="geometry" />
        </mxCell>
        <mxCell id="aE2q7IgJIMaWvHEXLfm5-34" value="Ori::Notifier" style="rounded=0;whiteSpace=wrap;html=1;fontFamily=Helvetica;fontSize=11;fontColor=default;" vertex="1" parent="1">
          <mxGeometry x="120" y="440" width="120" height="40" as="geometry" />
        </mxCell>
        <mxCell id="aE2q7IgJIMaWvHEXLfm5-39" style="edgeStyle=orthogonalEdgeStyle;shape=connector;rounded=0;orthogonalLoop=1;jettySize=auto;html=1;exitX=0;exitY=0.5;exitDx=0;exitDy=0;entryX=1;entryY=0.5;entryDx=0;entryDy=0;labelBackgroundColor=default;strokeColor=default;align=center;verticalAlign=middle;fontFamily=Helvetica;fontSize=11;fontColor=default;endArrow=block;endFill=0;" edge="1" parent="1" source="aE2q7IgJIMaWvHEXLfm5-38" target="aE2q7IgJIMaWvHEXLfm5-1">
          <mxGeometry relative="1" as="geometry" />
        </mxCell>
        <mxCell id="aE2q7IgJIMaWvHEXLfm5-38" value="CausticFunction" style="rounded=0;whiteSpace=wrap;html=1;fontFamily=Helvetica;fontSize=11;fontColor=default;" vertex="1" parent="1">
          <mxGeometry x="520" y="240" width="150" height="30" as="geometry" />
        </mxCell>
        <mxCell id="aE2q7IgJIMaWvHEXLfm5-41" style="edgeStyle=orthogonalEdgeStyle;shape=connector;rounded=0;orthogonalLoop=1;jettySize=auto;html=1;exitX=0;exitY=0.5;exitDx=0;exitDy=0;entryX=1;entryY=0.5;entryDx=0;entryDy=0;labelBackgroundColor=default;strokeColor=default;align=center;verticalAlign=middle;fontFamily=Helvetica;fontSize=11;fontColor=default;endArrow=block;endFill=0;" edge="1" parent="1" source="aE2q7IgJIMaWvHEXLfm5-40" target="aE2q7IgJIMaWvHEXLfm5-1">
          <mxGeometry relative="1" as="geometry" />
        </mxCell>
        <mxCell id="aE2q7IgJIMaWvHEXLfm5-40" value="BeamVariationFunction" style="rounded=0;whiteSpace=wrap;html=1;fontFamily=Helvetica;fontSize=11;fontColor=default;" vertex="1" parent="1">
          <mxGeometry x="520" y="200" width="150" height="30" as="geometry" />
        </mxCell>
        <mxCell id="aE2q7IgJIMaWvHEXLfm5-43" style="edgeStyle=orthogonalEdgeStyle;shape=connector;rounded=0;orthogonalLoop=1;jettySize=auto;html=1;exitX=0;exitY=0.5;exitDx=0;exitDy=0;entryX=1;entryY=0.5;entryDx=0;entryDy=0;labelBackgroundColor=default;strokeColor=default;align=center;verticalAlign=middle;fontFamily=Helvetica;fontSize=11;fontColor=default;endArrow=block;endFill=0;" edge="1" parent="1" source="aE2q7IgJIMaWvHEXLfm5-42" target="aE2q7IgJIMaWvHEXLfm5-8">
          <mxGeometry relative="1" as="geometry" />
        </mxCell>
        <mxCell id="aE2q7IgJIMaWvHEXLfm5-42" value="BeamParamsAtElemsFunction" style="rounded=0;whiteSpace=wrap;html=1;fontFamily=Helvetica;fontSize=11;fontColor=default;" vertex="1" parent="1">
          <mxGeometry x="520" y="470" width="150" height="30" as="geometry" />
        </mxCell>
      </root>
    </mxGraphModel>
  </diagram>
  <diagram id="xvPm4zGawgGDPkI21nh_" name="Windows">
    <mxGraphModel dx="2261" dy="956" grid="1" gridSize="10" guides="1" tooltips="1" connect="1" arrows="1" fold="1" page="1" pageScale="1" pageWidth="827" pageHeight="1169" math="0" shadow="0">
      <root>
        <mxCell id="0" />
        <mxCell id="1" parent="0" />
        <mxCell id="RPeckVAegko4lrezPjmK-3" style="edgeStyle=orthogonalEdgeStyle;shape=connector;rounded=0;orthogonalLoop=1;jettySize=auto;html=1;exitX=0;exitY=0.5;exitDx=0;exitDy=0;entryX=0.5;entryY=1;entryDx=0;entryDy=0;labelBackgroundColor=default;strokeColor=default;align=center;verticalAlign=middle;fontFamily=Helvetica;fontSize=11;fontColor=default;endArrow=block;endFill=0;" edge="1" parent="1" source="RPeckVAegko4lrezPjmK-1" target="RPeckVAegko4lrezPjmK-2">
          <mxGeometry relative="1" as="geometry" />
        </mxCell>
        <mxCell id="RPeckVAegko4lrezPjmK-1" value="BeamVariationWindow" style="rounded=0;whiteSpace=wrap;html=1;fontFamily=Helvetica;fontSize=11;fontColor=default;" vertex="1" parent="1">
          <mxGeometry x="-307" y="410" width="160" height="30" as="geometry" />
        </mxCell>
        <mxCell id="4Ox8TTI4GBjv1MqZSjOq-4" style="edgeStyle=orthogonalEdgeStyle;shape=connector;rounded=0;orthogonalLoop=1;jettySize=auto;html=1;exitX=0.5;exitY=0;exitDx=0;exitDy=0;entryX=0.5;entryY=1;entryDx=0;entryDy=0;labelBackgroundColor=default;strokeColor=default;align=center;verticalAlign=middle;fontFamily=Helvetica;fontSize=11;fontColor=default;endArrow=block;endFill=0;" edge="1" parent="1" source="RPeckVAegko4lrezPjmK-2" target="4Ox8TTI4GBjv1MqZSjOq-1">
          <mxGeometry relative="1" as="geometry" />
        </mxCell>
        <mxCell id="Msh9brpPdCSixJyeApm6-8" style="edgeStyle=orthogonalEdgeStyle;shape=connector;rounded=0;orthogonalLoop=1;jettySize=auto;html=1;exitX=1;exitY=0.5;exitDx=0;exitDy=0;entryX=0;entryY=0.5;entryDx=0;entryDy=0;labelBackgroundColor=default;strokeColor=#808080;align=center;verticalAlign=middle;fontFamily=Helvetica;fontSize=11;fontColor=default;endArrow=oval;endFill=0;" edge="1" parent="1" source="RPeckVAegko4lrezPjmK-2" target="Msh9brpPdCSixJyeApm6-4">
          <mxGeometry relative="1" as="geometry" />
        </mxCell>
        <mxCell id="RPeckVAegko4lrezPjmK-2" value="PlotFuncWindowStorable" style="rounded=0;whiteSpace=wrap;html=1;fontFamily=Helvetica;fontSize=11;fontColor=default;" vertex="1" parent="1">
          <mxGeometry x="-417" y="350" width="160" height="30" as="geometry" />
        </mxCell>
        <mxCell id="RPeckVAegko4lrezPjmK-11" style="edgeStyle=orthogonalEdgeStyle;shape=connector;rounded=0;orthogonalLoop=1;jettySize=auto;html=1;exitX=0;exitY=0.5;exitDx=0;exitDy=0;entryX=0.5;entryY=1;entryDx=0;entryDy=0;labelBackgroundColor=default;strokeColor=default;align=center;verticalAlign=middle;fontFamily=Helvetica;fontSize=11;fontColor=default;endArrow=block;endFill=0;" edge="1" parent="1" source="RPeckVAegko4lrezPjmK-10" target="RPeckVAegko4lrezPjmK-2">
          <mxGeometry relative="1" as="geometry" />
        </mxCell>
        <mxCell id="RPeckVAegko4lrezPjmK-10" value="CausticWindow" style="rounded=0;whiteSpace=wrap;html=1;fontFamily=Helvetica;fontSize=11;fontColor=default;" vertex="1" parent="1">
          <mxGeometry x="-307" y="450" width="160" height="30" as="geometry" />
        </mxCell>
        <mxCell id="RPeckVAegko4lrezPjmK-18" style="edgeStyle=orthogonalEdgeStyle;shape=connector;rounded=0;orthogonalLoop=1;jettySize=auto;html=1;exitX=0;exitY=0.25;exitDx=0;exitDy=0;entryX=1;entryY=0.5;entryDx=0;entryDy=0;labelBackgroundColor=default;strokeColor=default;align=center;verticalAlign=middle;fontFamily=Helvetica;fontSize=11;fontColor=default;endArrow=block;endFill=0;" edge="1" parent="1" source="RPeckVAegko4lrezPjmK-14" target="RPeckVAegko4lrezPjmK-16">
          <mxGeometry relative="1" as="geometry" />
        </mxCell>
        <mxCell id="Msh9brpPdCSixJyeApm6-1" style="edgeStyle=orthogonalEdgeStyle;shape=connector;rounded=0;orthogonalLoop=1;jettySize=auto;html=1;exitX=0;exitY=0.75;exitDx=0;exitDy=0;entryX=1;entryY=0.5;entryDx=0;entryDy=0;labelBackgroundColor=default;strokeColor=default;align=center;verticalAlign=middle;fontFamily=Helvetica;fontSize=11;fontColor=default;endArrow=block;endFill=0;" edge="1" parent="1" source="RPeckVAegko4lrezPjmK-14" target="RPeckVAegko4lrezPjmK-15">
          <mxGeometry relative="1" as="geometry" />
        </mxCell>
        <mxCell id="RPeckVAegko4lrezPjmK-14" value="InfoFuncWindow" style="rounded=0;whiteSpace=wrap;html=1;fontFamily=Helvetica;fontSize=11;fontColor=default;" vertex="1" parent="1">
          <mxGeometry x="-377" y="820" width="160" height="40" as="geometry" />
        </mxCell>
        <mxCell id="RPeckVAegko4lrezPjmK-15" value="ShortcutHandlerWindow&lt;br&gt;(QWidget)" style="rounded=0;whiteSpace=wrap;html=1;fontFamily=Helvetica;fontSize=11;fontColor=default;" vertex="1" parent="1">
          <mxGeometry x="-827" y="830" width="140" height="40" as="geometry" />
        </mxCell>
        <mxCell id="4Ox8TTI4GBjv1MqZSjOq-39" style="edgeStyle=orthogonalEdgeStyle;shape=connector;rounded=0;orthogonalLoop=1;jettySize=auto;html=1;exitX=0;exitY=0.5;exitDx=0;exitDy=0;entryX=1;entryY=0.5;entryDx=0;entryDy=0;labelBackgroundColor=default;strokeColor=default;align=center;verticalAlign=middle;fontFamily=Helvetica;fontSize=11;fontColor=default;endArrow=block;endFill=0;" edge="1" parent="1" source="RPeckVAegko4lrezPjmK-16" target="4Ox8TTI4GBjv1MqZSjOq-38">
          <mxGeometry relative="1" as="geometry" />
        </mxCell>
        <mxCell id="RPeckVAegko4lrezPjmK-16" value="SchemaToolWindow" style="rounded=0;whiteSpace=wrap;html=1;fontFamily=Helvetica;fontSize=11;fontColor=default;" vertex="1" parent="1">
          <mxGeometry x="-617" y="770" width="120" height="40" as="geometry" />
        </mxCell>
        <mxCell id="RPeckVAegko4lrezPjmK-23" style="edgeStyle=orthogonalEdgeStyle;shape=connector;rounded=0;orthogonalLoop=1;jettySize=auto;html=1;exitX=0;exitY=0.5;exitDx=0;exitDy=0;entryX=0.5;entryY=1;entryDx=0;entryDy=0;labelBackgroundColor=default;strokeColor=default;align=center;verticalAlign=middle;fontFamily=Helvetica;fontSize=11;fontColor=default;endArrow=block;endFill=0;" edge="1" parent="1" source="RPeckVAegko4lrezPjmK-21" target="RPeckVAegko4lrezPjmK-22">
          <mxGeometry relative="1" as="geometry" />
        </mxCell>
        <mxCell id="RPeckVAegko4lrezPjmK-21" value="MultibeamCausticWindow" style="rounded=0;whiteSpace=wrap;html=1;fontFamily=Helvetica;fontSize=11;fontColor=default;" vertex="1" parent="1">
          <mxGeometry x="-197" y="620" width="160" height="30" as="geometry" />
        </mxCell>
        <mxCell id="RPeckVAegko4lrezPjmK-27" style="edgeStyle=orthogonalEdgeStyle;shape=connector;rounded=0;orthogonalLoop=1;jettySize=auto;html=1;exitX=0;exitY=0.5;exitDx=0;exitDy=0;entryX=0.5;entryY=1;entryDx=0;entryDy=0;labelBackgroundColor=default;strokeColor=default;align=center;verticalAlign=middle;fontFamily=Helvetica;fontSize=11;fontColor=default;endArrow=block;endFill=0;" edge="1" parent="1" source="RPeckVAegko4lrezPjmK-22" target="RPeckVAegko4lrezPjmK-2">
          <mxGeometry relative="1" as="geometry">
            <mxPoint x="-217" y="830" as="targetPoint" />
          </mxGeometry>
        </mxCell>
        <mxCell id="RPeckVAegko4lrezPjmK-22" value="MulticausticWindow" style="rounded=0;whiteSpace=wrap;html=1;fontFamily=Helvetica;fontSize=11;fontColor=default;" vertex="1" parent="1">
          <mxGeometry x="-307" y="570" width="160" height="30" as="geometry" />
        </mxCell>
        <mxCell id="RPeckVAegko4lrezPjmK-29" style="edgeStyle=orthogonalEdgeStyle;shape=connector;rounded=0;orthogonalLoop=1;jettySize=auto;html=1;exitX=0;exitY=0.5;exitDx=0;exitDy=0;entryX=0.5;entryY=1;entryDx=0;entryDy=0;labelBackgroundColor=default;strokeColor=default;align=center;verticalAlign=middle;fontFamily=Helvetica;fontSize=11;fontColor=default;endArrow=block;endFill=0;" edge="1" parent="1" source="RPeckVAegko4lrezPjmK-28" target="RPeckVAegko4lrezPjmK-22">
          <mxGeometry relative="1" as="geometry" />
        </mxCell>
        <mxCell id="RPeckVAegko4lrezPjmK-28" value="MultirangeCausticWindow" style="rounded=0;whiteSpace=wrap;html=1;fontFamily=Helvetica;fontSize=11;fontColor=default;" vertex="1" parent="1">
          <mxGeometry x="-197" y="665" width="160" height="30" as="geometry" />
        </mxCell>
        <mxCell id="4Ox8TTI4GBjv1MqZSjOq-3" style="edgeStyle=orthogonalEdgeStyle;shape=connector;rounded=0;orthogonalLoop=1;jettySize=auto;html=1;exitX=0;exitY=0.5;exitDx=0;exitDy=0;entryX=1;entryY=0.5;entryDx=0;entryDy=0;labelBackgroundColor=default;strokeColor=default;align=center;verticalAlign=middle;fontFamily=Helvetica;fontSize=11;fontColor=default;endArrow=block;endFill=0;" edge="1" parent="1" source="4Ox8TTI4GBjv1MqZSjOq-1" target="4Ox8TTI4GBjv1MqZSjOq-2">
          <mxGeometry relative="1" as="geometry" />
        </mxCell>
        <mxCell id="4Ox8TTI4GBjv1MqZSjOq-1" value="PlotFuncWindow" style="rounded=0;whiteSpace=wrap;html=1;fontFamily=Helvetica;fontSize=11;fontColor=default;" vertex="1" parent="1">
          <mxGeometry x="-417" y="280" width="160" height="30" as="geometry" />
        </mxCell>
        <mxCell id="4Ox8TTI4GBjv1MqZSjOq-40" style="edgeStyle=orthogonalEdgeStyle;shape=connector;rounded=0;orthogonalLoop=1;jettySize=auto;html=1;exitX=0;exitY=0.5;exitDx=0;exitDy=0;entryX=1;entryY=0.5;entryDx=0;entryDy=0;labelBackgroundColor=default;strokeColor=default;align=center;verticalAlign=middle;fontFamily=Helvetica;fontSize=11;fontColor=default;endArrow=block;endFill=0;" edge="1" parent="1" source="4Ox8TTI4GBjv1MqZSjOq-2" target="4Ox8TTI4GBjv1MqZSjOq-28">
          <mxGeometry relative="1" as="geometry" />
        </mxCell>
        <mxCell id="4Ox8TTI4GBjv1MqZSjOq-42" style="edgeStyle=orthogonalEdgeStyle;shape=connector;rounded=0;orthogonalLoop=1;jettySize=auto;html=1;exitX=0;exitY=0.75;exitDx=0;exitDy=0;entryX=1;entryY=0.5;entryDx=0;entryDy=0;labelBackgroundColor=default;strokeColor=default;align=center;verticalAlign=middle;fontFamily=Helvetica;fontSize=11;fontColor=default;endArrow=block;endFill=0;" edge="1" parent="1" source="4Ox8TTI4GBjv1MqZSjOq-2" target="4Ox8TTI4GBjv1MqZSjOq-38">
          <mxGeometry relative="1" as="geometry" />
        </mxCell>
        <mxCell id="4Ox8TTI4GBjv1MqZSjOq-2" value="SchemaMdiChild" style="rounded=0;whiteSpace=wrap;html=1;fontFamily=Helvetica;fontSize=11;fontColor=default;" vertex="1" parent="1">
          <mxGeometry x="-617" y="180" width="120" height="40" as="geometry" />
        </mxCell>
        <mxCell id="4Ox8TTI4GBjv1MqZSjOq-8" style="edgeStyle=orthogonalEdgeStyle;shape=connector;rounded=0;orthogonalLoop=1;jettySize=auto;html=1;exitX=0;exitY=0.5;exitDx=0;exitDy=0;entryX=0.5;entryY=1;entryDx=0;entryDy=0;labelBackgroundColor=default;strokeColor=default;align=center;verticalAlign=middle;fontFamily=Helvetica;fontSize=11;fontColor=default;endArrow=block;endFill=0;" edge="1" parent="1" source="4Ox8TTI4GBjv1MqZSjOq-7" target="RPeckVAegko4lrezPjmK-2">
          <mxGeometry relative="1" as="geometry" />
        </mxCell>
        <mxCell id="4Ox8TTI4GBjv1MqZSjOq-7" value="StabilityMap2DWindow" style="rounded=0;whiteSpace=wrap;html=1;fontFamily=Helvetica;fontSize=11;fontColor=default;" vertex="1" parent="1">
          <mxGeometry x="-307" y="490" width="160" height="30" as="geometry" />
        </mxCell>
        <mxCell id="4Ox8TTI4GBjv1MqZSjOq-12" style="edgeStyle=orthogonalEdgeStyle;shape=connector;rounded=0;orthogonalLoop=1;jettySize=auto;html=1;exitX=0;exitY=0.5;exitDx=0;exitDy=0;entryX=0.5;entryY=1;entryDx=0;entryDy=0;labelBackgroundColor=default;strokeColor=default;align=center;verticalAlign=middle;fontFamily=Helvetica;fontSize=11;fontColor=default;endArrow=block;endFill=0;" edge="1" parent="1" source="4Ox8TTI4GBjv1MqZSjOq-11" target="RPeckVAegko4lrezPjmK-2">
          <mxGeometry relative="1" as="geometry" />
        </mxCell>
        <mxCell id="4Ox8TTI4GBjv1MqZSjOq-11" value="StabilityMapWindow" style="rounded=0;whiteSpace=wrap;html=1;fontFamily=Helvetica;fontSize=11;fontColor=default;" vertex="1" parent="1">
          <mxGeometry x="-307" y="530" width="160" height="30" as="geometry" />
        </mxCell>
        <mxCell id="4Ox8TTI4GBjv1MqZSjOq-16" style="edgeStyle=orthogonalEdgeStyle;shape=connector;rounded=0;orthogonalLoop=1;jettySize=auto;html=1;exitX=0;exitY=0.5;exitDx=0;exitDy=0;entryX=1;entryY=0.5;entryDx=0;entryDy=0;labelBackgroundColor=default;strokeColor=default;align=center;verticalAlign=middle;fontFamily=Helvetica;fontSize=11;fontColor=default;endArrow=block;endFill=0;" edge="1" parent="1" source="4Ox8TTI4GBjv1MqZSjOq-15" target="4Ox8TTI4GBjv1MqZSjOq-2">
          <mxGeometry relative="1" as="geometry" />
        </mxCell>
        <mxCell id="a-dHUlMbPLdc81-JSEIr-1" style="edgeStyle=orthogonalEdgeStyle;shape=connector;rounded=0;orthogonalLoop=1;jettySize=auto;html=1;exitX=1;exitY=0.25;exitDx=0;exitDy=0;entryX=0;entryY=0.5;entryDx=0;entryDy=0;labelBackgroundColor=default;strokeColor=#808080;align=center;verticalAlign=middle;fontFamily=Helvetica;fontSize=11;fontColor=default;endArrow=oval;endFill=0;" edge="1" parent="1" source="4Ox8TTI4GBjv1MqZSjOq-15" target="Msh9brpPdCSixJyeApm6-4">
          <mxGeometry relative="1" as="geometry" />
        </mxCell>
        <mxCell id="4Ox8TTI4GBjv1MqZSjOq-15" value="TableFuncWindow" style="rounded=0;whiteSpace=wrap;html=1;fontFamily=Helvetica;fontSize=11;fontColor=default;" vertex="1" parent="1">
          <mxGeometry x="-417" y="120" width="160" height="30" as="geometry" />
        </mxCell>
        <mxCell id="4Ox8TTI4GBjv1MqZSjOq-20" style="edgeStyle=orthogonalEdgeStyle;shape=connector;rounded=0;orthogonalLoop=1;jettySize=auto;html=1;exitX=0;exitY=0.5;exitDx=0;exitDy=0;labelBackgroundColor=default;strokeColor=default;align=center;verticalAlign=middle;fontFamily=Helvetica;fontSize=11;fontColor=default;endArrow=block;endFill=0;entryX=1;entryY=0.5;entryDx=0;entryDy=0;" edge="1" parent="1" source="4Ox8TTI4GBjv1MqZSjOq-19" target="RPeckVAegko4lrezPjmK-16">
          <mxGeometry relative="1" as="geometry">
            <mxPoint x="-467" y="760" as="targetPoint" />
          </mxGeometry>
        </mxCell>
        <mxCell id="4Ox8TTI4GBjv1MqZSjOq-19" value="AdjustmentWindow" style="rounded=0;whiteSpace=wrap;html=1;fontFamily=Helvetica;fontSize=11;fontColor=default;" vertex="1" parent="1">
          <mxGeometry x="-377" y="770" width="160" height="40" as="geometry" />
        </mxCell>
        <mxCell id="4Ox8TTI4GBjv1MqZSjOq-24" style="edgeStyle=orthogonalEdgeStyle;shape=connector;rounded=0;orthogonalLoop=1;jettySize=auto;html=1;exitX=0;exitY=0.5;exitDx=0;exitDy=0;entryX=1;entryY=0.5;entryDx=0;entryDy=0;labelBackgroundColor=default;strokeColor=default;align=center;verticalAlign=middle;fontFamily=Helvetica;fontSize=11;fontColor=default;endArrow=block;endFill=0;" edge="1" parent="1" source="4Ox8TTI4GBjv1MqZSjOq-23" target="RPeckVAegko4lrezPjmK-16">
          <mxGeometry relative="1" as="geometry" />
        </mxCell>
        <mxCell id="4Ox8TTI4GBjv1MqZSjOq-23" value="ProjectWindow" style="rounded=0;whiteSpace=wrap;html=1;fontFamily=Helvetica;fontSize=11;fontColor=default;" vertex="1" parent="1">
          <mxGeometry x="-377" y="720" width="160" height="40" as="geometry" />
        </mxCell>
        <mxCell id="4Ox8TTI4GBjv1MqZSjOq-29" style="edgeStyle=orthogonalEdgeStyle;shape=connector;rounded=0;orthogonalLoop=1;jettySize=auto;html=1;exitX=0;exitY=0.5;exitDx=0;exitDy=0;entryX=1;entryY=0.5;entryDx=0;entryDy=0;labelBackgroundColor=default;strokeColor=default;align=center;verticalAlign=middle;fontFamily=Helvetica;fontSize=11;fontColor=default;endArrow=block;endFill=0;" edge="1" parent="1" source="4Ox8TTI4GBjv1MqZSjOq-27" target="4Ox8TTI4GBjv1MqZSjOq-28">
          <mxGeometry relative="1" as="geometry" />
        </mxCell>
        <mxCell id="4Ox8TTI4GBjv1MqZSjOq-27" value="ProtocolWindow" style="rounded=0;whiteSpace=wrap;html=1;fontFamily=Helvetica;fontSize=11;fontColor=default;" vertex="1" parent="1">
          <mxGeometry x="-617" y="80" width="120" height="40" as="geometry" />
        </mxCell>
        <mxCell id="4Ox8TTI4GBjv1MqZSjOq-28" value="BasicMdiChild&lt;br&gt;(QMdiSubWindow)" style="rounded=0;whiteSpace=wrap;html=1;fontFamily=Helvetica;fontSize=11;fontColor=default;" vertex="1" parent="1">
          <mxGeometry x="-817" y="120" width="120" height="40" as="geometry" />
        </mxCell>
        <mxCell id="4Ox8TTI4GBjv1MqZSjOq-31" style="edgeStyle=orthogonalEdgeStyle;shape=connector;rounded=0;orthogonalLoop=1;jettySize=auto;html=1;exitX=0;exitY=0.5;exitDx=0;exitDy=0;entryX=1;entryY=0.5;entryDx=0;entryDy=0;labelBackgroundColor=default;strokeColor=default;align=center;verticalAlign=middle;fontFamily=Helvetica;fontSize=11;fontColor=default;endArrow=block;endFill=0;" edge="1" parent="1" source="4Ox8TTI4GBjv1MqZSjOq-30" target="4Ox8TTI4GBjv1MqZSjOq-2">
          <mxGeometry relative="1" as="geometry" />
        </mxCell>
        <mxCell id="Msh9brpPdCSixJyeApm6-6" style="edgeStyle=orthogonalEdgeStyle;shape=connector;rounded=0;orthogonalLoop=1;jettySize=auto;html=1;exitX=1;exitY=0.5;exitDx=0;exitDy=0;entryX=0;entryY=0.5;entryDx=0;entryDy=0;labelBackgroundColor=default;strokeColor=#808080;align=center;verticalAlign=middle;fontFamily=Helvetica;fontSize=11;fontColor=default;endArrow=oval;endFill=0;" edge="1" parent="1" source="4Ox8TTI4GBjv1MqZSjOq-30" target="Msh9brpPdCSixJyeApm6-4">
          <mxGeometry relative="1" as="geometry" />
        </mxCell>
        <mxCell id="4Ox8TTI4GBjv1MqZSjOq-30" value="PumpWindow" style="rounded=0;whiteSpace=wrap;html=1;fontFamily=Helvetica;fontSize=11;fontColor=default;" vertex="1" parent="1">
          <mxGeometry x="-417" y="160" width="160" height="30" as="geometry" />
        </mxCell>
        <mxCell id="4Ox8TTI4GBjv1MqZSjOq-35" style="edgeStyle=orthogonalEdgeStyle;shape=connector;rounded=0;orthogonalLoop=1;jettySize=auto;html=1;exitX=0;exitY=0.5;exitDx=0;exitDy=0;entryX=1;entryY=0.5;entryDx=0;entryDy=0;labelBackgroundColor=default;strokeColor=default;align=center;verticalAlign=middle;fontFamily=Helvetica;fontSize=11;fontColor=default;endArrow=block;endFill=0;" edge="1" parent="1" source="4Ox8TTI4GBjv1MqZSjOq-34" target="4Ox8TTI4GBjv1MqZSjOq-2">
          <mxGeometry relative="1" as="geometry" />
        </mxCell>
        <mxCell id="Msh9brpPdCSixJyeApm6-7" style="edgeStyle=orthogonalEdgeStyle;shape=connector;rounded=0;orthogonalLoop=1;jettySize=auto;html=1;exitX=1;exitY=0.5;exitDx=0;exitDy=0;entryX=0;entryY=0.5;entryDx=0;entryDy=0;labelBackgroundColor=default;strokeColor=#808080;align=center;verticalAlign=middle;fontFamily=Helvetica;fontSize=11;fontColor=default;endArrow=oval;endFill=0;" edge="1" parent="1" source="4Ox8TTI4GBjv1MqZSjOq-34" target="Msh9brpPdCSixJyeApm6-4">
          <mxGeometry relative="1" as="geometry" />
        </mxCell>
        <mxCell id="4Ox8TTI4GBjv1MqZSjOq-34" value="SchemaParamsWindow" style="rounded=0;whiteSpace=wrap;html=1;fontFamily=Helvetica;fontSize=11;fontColor=default;" vertex="1" parent="1">
          <mxGeometry x="-417" y="200" width="160" height="30" as="geometry" />
        </mxCell>
        <mxCell id="4Ox8TTI4GBjv1MqZSjOq-37" style="edgeStyle=orthogonalEdgeStyle;shape=connector;rounded=0;orthogonalLoop=1;jettySize=auto;html=1;exitX=0;exitY=0.5;exitDx=0;exitDy=0;entryX=1;entryY=0.5;entryDx=0;entryDy=0;labelBackgroundColor=default;strokeColor=default;align=center;verticalAlign=middle;fontFamily=Helvetica;fontSize=11;fontColor=default;endArrow=block;endFill=0;" edge="1" parent="1" source="4Ox8TTI4GBjv1MqZSjOq-36" target="4Ox8TTI4GBjv1MqZSjOq-2">
          <mxGeometry relative="1" as="geometry" />
        </mxCell>
        <mxCell id="4Ox8TTI4GBjv1MqZSjOq-36" value="SchemaViewWindow" style="rounded=0;whiteSpace=wrap;html=1;fontFamily=Helvetica;fontSize=11;fontColor=default;" vertex="1" parent="1">
          <mxGeometry x="-417" y="240" width="160" height="30" as="geometry" />
        </mxCell>
        <mxCell id="4Ox8TTI4GBjv1MqZSjOq-38" value="SchemaWindow" style="rounded=0;whiteSpace=wrap;html=1;fontFamily=Helvetica;fontSize=11;fontColor=default;" vertex="1" parent="1">
          <mxGeometry x="-817" y="320" width="120" height="40" as="geometry" />
        </mxCell>
        <mxCell id="4Ox8TTI4GBjv1MqZSjOq-44" style="edgeStyle=orthogonalEdgeStyle;shape=connector;rounded=0;orthogonalLoop=1;jettySize=auto;html=1;exitX=0;exitY=0.5;exitDx=0;exitDy=0;entryX=1;entryY=0.5;entryDx=0;entryDy=0;labelBackgroundColor=default;strokeColor=default;align=center;verticalAlign=middle;fontFamily=Helvetica;fontSize=11;fontColor=default;endArrow=block;endFill=0;" edge="1" parent="1" source="4Ox8TTI4GBjv1MqZSjOq-43" target="4Ox8TTI4GBjv1MqZSjOq-2">
          <mxGeometry relative="1" as="geometry" />
        </mxCell>
        <mxCell id="4Ox8TTI4GBjv1MqZSjOq-43" value="MemoWindow" style="rounded=0;whiteSpace=wrap;html=1;fontFamily=Helvetica;fontSize=11;fontColor=default;" vertex="1" parent="1">
          <mxGeometry x="-417" y="80" width="160" height="30" as="geometry" />
        </mxCell>
        <mxCell id="Msh9brpPdCSixJyeApm6-3" style="edgeStyle=orthogonalEdgeStyle;shape=connector;rounded=0;orthogonalLoop=1;jettySize=auto;html=1;exitX=0;exitY=0.5;exitDx=0;exitDy=0;entryX=1;entryY=0.5;entryDx=0;entryDy=0;labelBackgroundColor=default;strokeColor=default;align=center;verticalAlign=middle;fontFamily=Helvetica;fontSize=11;fontColor=default;endArrow=block;endFill=0;" edge="1" parent="1" source="Msh9brpPdCSixJyeApm6-2" target="4Ox8TTI4GBjv1MqZSjOq-2">
          <mxGeometry relative="1" as="geometry" />
        </mxCell>
        <mxCell id="Msh9brpPdCSixJyeApm6-2" value="ElemFormulaWindow" style="rounded=0;whiteSpace=wrap;html=1;fontFamily=Helvetica;fontSize=11;fontColor=default;" vertex="1" parent="1">
          <mxGeometry x="-417" y="40" width="160" height="30" as="geometry" />
        </mxCell>
        <mxCell id="Msh9brpPdCSixJyeApm6-4" value="ISchemaWindowStorable" style="rounded=0;whiteSpace=wrap;html=1;fontFamily=Helvetica;fontSize=11;fontColor=default;" vertex="1" parent="1">
          <mxGeometry x="-177" y="50" width="140" height="40" as="geometry" />
        </mxCell>
        <mxCell id="a-dHUlMbPLdc81-JSEIr-2" value="BeamParamsAtElemsWindow" style="rounded=0;whiteSpace=wrap;html=1;fontFamily=Helvetica;fontSize=11;fontColor=default;" vertex="1" parent="1">
          <mxGeometry x="-177" y="120" width="160" height="30" as="geometry" />
        </mxCell>
        <mxCell id="a-dHUlMbPLdc81-JSEIr-3" style="edgeStyle=orthogonalEdgeStyle;shape=connector;rounded=0;orthogonalLoop=1;jettySize=auto;html=1;exitX=0;exitY=0.5;exitDx=0;exitDy=0;labelBackgroundColor=default;strokeColor=default;align=center;verticalAlign=middle;fontFamily=Helvetica;fontSize=11;fontColor=default;endArrow=block;endFill=0;entryX=1;entryY=0.5;entryDx=0;entryDy=0;" edge="1" parent="1" source="a-dHUlMbPLdc81-JSEIr-2" target="4Ox8TTI4GBjv1MqZSjOq-15">
          <mxGeometry relative="1" as="geometry">
            <mxPoint x="-240" y="120" as="targetPoint" />
          </mxGeometry>
        </mxCell>
        <mxCell id="Msh9brpPdCSixJyeApm6-5" style="edgeStyle=orthogonalEdgeStyle;shape=connector;rounded=0;orthogonalLoop=1;jettySize=auto;html=1;exitX=1;exitY=0.5;exitDx=0;exitDy=0;entryX=0;entryY=0.5;entryDx=0;entryDy=0;labelBackgroundColor=default;strokeColor=#808080;align=center;verticalAlign=middle;fontFamily=Helvetica;fontSize=11;fontColor=default;endArrow=oval;endFill=0;" edge="1" parent="1" source="Msh9brpPdCSixJyeApm6-2" target="Msh9brpPdCSixJyeApm6-4">
          <mxGeometry relative="1" as="geometry" />
        </mxCell>
      </root>
    </mxGraphModel>
  </diagram>
</mxfile>
